<svg width="12" height="12" viewBox="0 0 12 12" fill="none" xmlns="http://www.w3.org/2000/svg">
<path d="M10 4.09V1.5C10 1.36739 9.94734 1.24021 9.85357 1.14645C9.7598 1.05268 9.63263 1 9.50002 1C9.36741 1 9.24023 1.05268 9.14646 1.14645C9.0527 1.24021 9.00002 1.36739 9.00002 1.5V4.09C8.71044 4.1951 8.46025 4.38681 8.28344 4.63908C8.10663 4.89135 8.01178 5.19194 8.01178 5.5C8.01178 5.80806 8.10663 6.10865 8.28344 6.36092C8.46025 6.61319 8.71044 6.8049 9.00002 6.91V10.5C9.00002 10.6326 9.0527 10.7598 9.14646 10.8536C9.24023 10.9473 9.36741 11 9.50002 11C9.63263 11 9.7598 10.9473 9.85357 10.8536C9.94734 10.7598 10 10.6326 10 10.5V6.91C10.2896 6.8049 10.5398 6.61319 10.7166 6.36092C10.8934 6.10865 10.9883 5.80806 10.9883 5.5C10.9883 5.19194 10.8934 4.89135 10.7166 4.63908C10.5398 4.38681 10.2896 4.1951 10 4.09ZM9.50002 6C9.40113 6 9.30446 5.97068 9.22223 5.91573C9.14001 5.86079 9.07592 5.7827 9.03808 5.69134C9.00023 5.59998 8.99033 5.49945 9.00963 5.40245C9.02892 5.30546 9.07654 5.21637 9.14646 5.14645C9.21639 5.07652 9.30548 5.0289 9.40247 5.00961C9.49946 4.99031 9.6 5.00022 9.69136 5.03806C9.78272 5.0759 9.86081 5.13999 9.91575 5.22221C9.97069 5.30444 10 5.40111 10 5.5C10 5.63261 9.94734 5.75979 9.85357 5.85355C9.7598 5.94732 9.63263 6 9.50002 6ZM6.50002 7.09V1.5C6.50002 1.36739 6.44734 1.24021 6.35357 1.14645C6.2598 1.05268 6.13263 1 6.00002 1C5.86741 1 5.74023 1.05268 5.64646 1.14645C5.5527 1.24021 5.50002 1.36739 5.50002 1.5V7.09C5.21044 7.1951 4.96025 7.38681 4.78344 7.63908C4.60663 7.89135 4.51178 8.19194 4.51178 8.5C4.51178 8.80806 4.60663 9.10865 4.78344 9.36092C4.96025 9.61318 5.21044 9.8049 5.50002 9.91V10.5C5.50002 10.6326 5.5527 10.7598 5.64646 10.8536C5.74023 10.9473 5.86741 11 6.00002 11C6.13263 11 6.2598 10.9473 6.35357 10.8536C6.44734 10.7598 6.50002 10.6326 6.50002 10.5V9.91C6.78959 9.8049 7.03979 9.61318 7.2166 9.36092C7.39341 9.10865 7.48826 8.80806 7.48826 8.5C7.48826 8.19194 7.39341 7.89135 7.2166 7.63908C7.03979 7.38681 6.78959 7.1951 6.50002 7.09ZM6.00002 9C5.90113 9 5.80446 8.97068 5.72223 8.91574C5.64001 8.86079 5.57592 8.7827 5.53808 8.69134C5.50023 8.59998 5.49033 8.49944 5.50963 8.40245C5.52892 8.30546 5.57654 8.21637 5.64646 8.14645C5.71639 8.07652 5.80548 8.0289 5.90247 8.00961C5.99946 7.99031 6.1 8.00022 6.19136 8.03806C6.28272 8.0759 6.36081 8.13999 6.41575 8.22221C6.47069 8.30444 6.50002 8.40111 6.50002 8.5C6.50002 8.63261 6.44734 8.75979 6.35357 8.85355C6.2598 8.94732 6.13263 9 6.00002 9ZM3.00002 3.09V1.5C3.00002 1.36739 2.94734 1.24021 2.85357 1.14645C2.7598 1.05268 2.63263 1 2.50002 1C2.36741 1 2.24023 1.05268 2.14646 1.14645C2.0527 1.24021 2.00002 1.36739 2.00002 1.5V3.09C1.71044 3.1951 1.46025 3.38681 1.28344 3.63908C1.10663 3.89135 1.01178 4.19194 1.01178 4.5C1.01178 4.80806 1.10663 5.10865 1.28344 5.36092C1.46025 5.61319 1.71044 5.8049 2.00002 5.91V10.5C2.00002 10.6326 2.0527 10.7598 2.14646 10.8536C2.24023 10.9473 2.36741 11 2.50002 11C2.63263 11 2.7598 10.9473 2.85357 10.8536C2.94734 10.7598 3.00002 10.6326 3.00002 10.5V5.91C3.28959 5.8049 3.53979 5.61319 3.7166 5.36092C3.89341 5.10865 3.98826 4.80806 3.98826 4.5C3.98826 4.19194 3.89341 3.89135 3.7166 3.63908C3.53979 3.38681 3.28959 3.1951 3.00002 3.09ZM2.50002 5C2.40113 5 2.30446 4.97068 2.22223 4.91573C2.14001 4.86079 2.07592 4.7827 2.03808 4.69134C2.00023 4.59998 1.99033 4.49945 2.00963 4.40245C2.02892 4.30546 2.07654 4.21637 2.14646 4.14645C2.21639 4.07652 2.30548 4.0289 2.40247 4.00961C2.49946 3.99031 2.6 4.00022 2.69136 4.03806C2.78272 4.0759 2.86081 4.13999 2.91575 4.22221C2.97069 4.30444 3.00002 4.40111 3.00002 4.5C3.00002 4.63261 2.94734 4.75979 2.85357 4.85355C2.7598 4.94732 2.63263 5 2.50002 5Z" fill="#3E3E40"/>
</svg>
